<?xml version="1.0" encoding="utf-8"?>
<!-- Generator: Adobe Illustrator 24.3.0, SVG Export Plug-In . SVG Version: 6.00 Build 0)  -->
<svg version="1.1" id="Layer_1" xmlns="http://www.w3.org/2000/svg" xmlns:xlink="http://www.w3.org/1999/xlink" x="0px" y="0px"
	 viewBox="0 0 85 63" style="enable-background:new 0 0 85 63;" xml:space="preserve">
<style type="text/css">
	.st0{fill:#FFFFFF;}
</style>
<path class="st0" d="M79.1,20c-1.3,8.6-10.4,14.4-20.3,12.9c-2.1-0.3-4-0.9-5.8-1.8c9.8,1.4,18.8-4,20-12.1
	c1.2-8-5.5-15.6-15.1-17.4c1.8-0.2,3.7-0.2,5.6,0.1C73.4,3.2,80.4,11.4,79.1,20z"/>
<path class="st0" d="M53,31.2c-2-1.4-4.3-2.5-6.7-3.3C33.4,23.7,19.7,30,15.8,42.1c-2.2,6.7-0.8,13.8,3,19.4
	c-7.1-5.9-10.4-15.4-7.5-24.2c3.8-11.9,17.3-18.1,30-14C46.1,24.9,50.1,27.7,53,31.2z"/>
<path class="st0" d="M53.4,26.8c0,0.2,0,0.4,0,0.6C50.8,17,41.3,9.3,29.9,9.3c-12.3,0-22.4,9-24,20.7c-0.2-1-0.2-2.1-0.2-3.1
	C5.7,13.7,16.4,3,29.5,3C42.7,3,53.4,13.7,53.4,26.8z"/>
<path class="st0" d="M56.6,7.8c-0.6-0.2-1.3-0.3-2-0.3c-2.9,0-5.5,1.6-6.9,3.9c-0.5-0.6-1-1.1-1.5-1.7c1.5-1.9,3.8-3.1,6.4-3.1
	C54,6.7,55.4,7.1,56.6,7.8z"/>
</svg>
